<?xml version="1.0" encoding="UTF-8"?>
<!DOCTYPE svg PUBLIC "-//W3C//DTD SVG 1.1//EN" "http://www.w3.org/Graphics/SVG/1.1/DTD/svg11.dtd">
<svg xmlns="http://www.w3.org/2000/svg" version="1.1" width="500px" height="500px" style="shape-rendering:geometricPrecision; text-rendering:geometricPrecision; image-rendering:optimizeQuality; fill-rule:evenodd; clip-rule:evenodd" xmlns:xlink="http://www.w3.org/1999/xlink">
<g><path style="opacity:0.996" fill="#f1f1f1" d="M 373.5,182.5 C 372.624,182.369 371.957,182.702 371.5,183.5C 376.624,190.415 380.124,198.081 382,206.5C 382.494,204.866 382.66,203.199 382.5,201.5C 384.685,207.495 388.185,212.828 393,217.5C 399.041,228.87 400.875,240.87 398.5,253.5C 406.405,270.887 404.572,287.221 393,302.5C 389.159,305.502 386.825,309.502 386,314.5C 380.51,320.325 374.177,324.991 367,328.5C 367.977,342.25 363.144,353.417 352.5,362C 347.02,363.933 341.853,366.433 337,369.5C 336.439,368.978 335.772,368.645 335,368.5C 325.358,369.006 316.191,371.173 307.5,375C 285.319,378.66 269.152,370.493 259,350.5C 253.59,354.955 247.423,357.955 240.5,359.5C 238.836,358.777 237.169,359.11 235.5,360.5C 226.666,360.667 218,359.667 209.5,357.5C 215.906,357.351 215.739,356.685 209,355.5C 200.858,353.558 193.191,349.225 186,342.5C 185.536,343.094 185.369,343.761 185.5,344.5C 181.901,342.737 179.068,340.07 177,336.5C 173.49,329.991 170.99,323.158 169.5,316C 160.876,315.179 152.876,312.679 145.5,308.5C 146.552,308.649 147.552,308.483 148.5,308C 142.031,305.023 136.197,301.19 131,296.5C 130.536,297.094 130.369,297.761 130.5,298.5C 117.137,285.571 112.303,269.904 116,251.5C 116.92,247.737 118.42,244.237 120.5,241C 117.862,231.073 117.862,221.24 120.5,211.5C 120.618,219.246 121.285,219.079 122.5,211C 122.355,210.228 122.022,209.561 121.5,209C 124.113,207.929 124.113,207.095 121.5,206.5C 124.148,197.217 128.815,189.217 135.5,182.5C 135.369,183.239 135.536,183.906 136,184.5C 143.924,175.909 153.424,169.743 164.5,166C 163.207,165.51 161.873,165.343 160.5,165.5C 162.515,164.076 164.848,163.41 167.5,163.5C 167.082,164.222 166.416,164.722 165.5,165C 170.684,164.535 175.017,162.201 178.5,158C 180.087,157.138 181.754,156.471 183.5,156C 182.207,155.51 180.873,155.343 179.5,155.5C 183.695,152.746 188.362,151.079 193.5,150.5C 193.082,151.222 192.416,151.722 191.5,152C 199.393,150.946 207.393,150.279 215.5,150C 209.509,149.501 203.509,149.334 197.5,149.5C 206.266,148.003 215.099,148.337 224,150.5C 235.833,145.278 247.666,144.945 259.5,149.5C 277.663,145.067 295.163,147.067 312,155.5C 337.627,153.238 358.127,162.238 373.5,182.5 Z M 305.5,166.5 C 308.28,169.064 311.28,171.397 314.5,173.5C 324.507,182.177 331.507,192.843 335.5,205.5C 336.332,210.481 336.498,215.481 336,220.5C 332.797,219.69 329.631,218.69 326.5,217.5C 323.611,194.102 310.944,178.602 288.5,171C 280.601,168.459 272.601,167.959 264.5,169.5C 261.984,169.755 259.65,170.589 257.5,172C 252.645,175.039 248.312,178.539 244.5,182.5C 241.375,181.521 238.042,181.187 234.5,181.5C 234.729,179.567 235.562,177.9 237,176.5C 257.357,156.97 280.191,153.637 305.5,166.5 Z M 225.5,163.5 C 227.14,164.32 228.807,165.153 230.5,166C 228.294,168.037 226.294,170.203 224.5,172.5C 223.85,172.804 223.183,173.137 222.5,173.5C 210.321,169.167 198.654,170.334 187.5,177C 182.755,182.269 181.255,188.436 183,195.5C 183.883,198.102 185.383,200.269 187.5,202C 182.88,204.983 178.713,204.15 175,199.5C 169.355,183.599 174.188,171.765 189.5,164C 195.254,161.562 201.254,160.062 207.5,159.5C 213.708,160.004 219.708,161.337 225.5,163.5 Z M 328.5,167.5 C 347.211,172.208 360.877,183.208 369.5,200.5C 367.5,201.833 365.5,201.833 363.5,200.5C 357.964,190.557 349.63,184.224 338.5,181.5C 335.441,176.782 331.775,172.782 327.5,169.5C 325.969,168.075 326.302,167.409 328.5,167.5 Z M 158.5,178.5 C 159.648,182.981 159.815,187.648 159,192.5C 155.667,194.667 152.834,197.334 150.5,200.5C 146.638,203.55 144.305,207.55 143.5,212.5C 141.96,214.838 141.294,217.505 141.5,220.5C 138.89,232.5 142.39,242.5 152,250.5C 152.477,253.953 151.977,257.286 150.5,260.5C 139.044,254.278 132.544,244.611 131,231.5C 130.123,218.005 133.457,205.672 141,194.5C 146.404,188.591 152.237,183.258 158.5,178.5 Z M 309.5,201.5 C 311.648,206.278 312.981,211.278 313.5,216.5C 310.126,216.326 306.793,215.826 303.5,215C 302.771,212.942 301.771,211.109 300.5,209.5C 299.25,205.592 296.917,202.592 293.5,200.5C 292.106,198.292 290.106,196.792 287.5,196C 282.877,195.042 278.21,194.375 273.5,194C 270.757,191.962 267.757,190.462 264.5,189.5C 258.037,187.476 258.037,184.976 264.5,182C 277.134,178.992 288.468,181.658 298.5,190C 302.398,193.729 306.065,197.562 309.5,201.5 Z M 201.5,189.5 C 199.973,189.427 198.973,190.094 198.5,191.5C 196.491,193 195.158,192.5 194.5,190C 196.291,186.219 199.291,183.886 203.5,183C 206.5,182.333 209.5,182.333 212.5,183C 208.49,184.711 204.824,186.878 201.5,189.5 Z M 248.5,195.5 C 251.625,197.225 254.958,198.725 258.5,200C 257.619,200.708 256.953,201.542 256.5,202.5C 254.523,204.814 252.523,207.147 250.5,209.5C 248.389,208.051 246.056,207.051 243.5,206.5C 234.59,206.459 225.59,206.626 216.5,207C 210.506,207.944 204.506,208.777 198.5,209.5C 203.799,201.068 211.466,195.901 221.5,194C 224.5,193.5 227.5,193 230.5,192.5C 236.555,193.317 242.555,194.317 248.5,195.5 Z M 351.5,205.5 C 352.568,208.075 354.235,210.242 356.5,212C 375.893,212.282 386.06,222.115 387,241.5C 385.333,240.5 383.667,239.5 382,238.5C 379.479,232.624 376.312,227.124 372.5,222C 364.499,219.285 361.333,222.118 363,230.5C 377.524,252.154 375.191,271.82 356,289.5C 351.16,288.426 346.327,288.592 341.5,290C 329.09,296.342 316.423,297.008 303.5,292C 298.303,289.637 294.637,285.803 292.5,280.5C 292.833,280.167 293.167,279.833 293.5,279.5C 303.083,281.157 312.75,282.157 322.5,282.5C 323.209,283.404 324.209,283.737 325.5,283.5C 340.938,288.459 352.271,283.459 359.5,268.5C 361.601,265.873 362.934,262.873 363.5,259.5C 368.954,243.402 364.12,231.402 349,223.5C 348.923,215.296 347.757,207.296 345.5,199.5C 345.435,199.062 345.601,198.728 346,198.5C 348.325,200.501 350.158,202.834 351.5,205.5 Z M 283.5,215.5 C 280.784,215.678 278.117,216.178 275.5,217C 273.574,217.422 272.574,218.589 272.5,220.5C 270.478,226.65 271.811,232.15 276.5,237C 274.08,237.29 271.746,237.79 269.5,238.5C 266.527,237.19 264.193,235.19 262.5,232.5C 257.439,218.622 261.939,209.622 276,205.5C 281.098,206.774 285.264,209.441 288.5,213.5C 287.15,214.95 285.484,215.617 283.5,215.5 Z M 160.5,206.5 C 161.552,206.351 162.552,206.517 163.5,207C 164.167,209 165.5,210.333 167.5,211C 162.646,216.894 160.48,223.728 161,231.5C 159.235,238.912 156.902,239.246 154,232.5C 152.14,222.898 154.307,214.231 160.5,206.5 Z M 210.5,230.5 C 208.585,230.216 206.919,230.549 205.5,231.5C 202.848,231.41 200.515,232.076 198.5,233.5C 195.759,233.707 193.426,234.707 191.5,236.5C 188.669,237.079 186.336,238.412 184.5,240.5C 175.605,247.673 172.105,257.006 174,268.5C 176.718,273.279 180.885,275.612 186.5,275.5C 194.205,277.406 201.538,276.239 208.5,272C 209.71,270.961 210.71,269.794 211.5,268.5C 213.41,267.025 214.576,265.025 215,262.5C 215.383,263.056 215.883,263.389 216.5,263.5C 216.924,266.354 217.924,269.021 219.5,271.5C 213.359,275.808 207.359,280.308 201.5,285C 191.278,285.685 181.611,283.685 172.5,279C 165.45,272.316 162.95,264.149 165,254.5C 169.837,237.332 181.004,226.498 198.5,222C 209.078,219.507 219.744,218.674 230.5,219.5C 228.833,222.167 227.167,224.833 225.5,227.5C 220.333,228.262 215.333,229.262 210.5,230.5 Z M 244.5,221.5 C 246.8,221.522 247.967,222.522 248,224.5C 240.378,228.155 239.212,227.155 244.5,221.5 Z M 338.5,246.5 C 335.63,244.206 332.297,242.872 328.5,242.5C 323.446,240.447 318.113,238.947 312.5,238C 305.421,237.436 298.421,236.436 291.5,235C 289.402,232.146 287.069,229.479 284.5,227C 305.876,226.053 326.542,229.387 346.5,237C 353.115,242.744 354.615,249.577 351,257.5C 347.882,252.543 343.715,248.876 338.5,246.5 Z M 236.5,252.5 C 237.547,255.596 238.88,258.596 240.5,261.5C 239.754,262.736 239.421,264.07 239.5,265.5C 236.572,265.852 233.738,266.518 231,267.5C 230.768,266.263 230.268,265.263 229.5,264.5C 228.101,259.366 225.435,255.033 221.5,251.5C 218.667,247.835 215.334,244.668 211.5,242C 216.5,240 221.5,240 226.5,242C 230.065,245.396 233.398,248.896 236.5,252.5 Z M 254.5,241.5 C 254.953,242.458 255.619,243.292 256.5,244C 254.241,245.715 252.074,247.548 250,249.5C 247.85,245.497 245.016,242.164 241.5,239.5C 244.408,239.914 247.408,239.248 250.5,237.5C 251.84,238.867 253.173,240.2 254.5,241.5 Z M 196.5,246.5 C 207.121,252.256 207.121,258.09 196.5,264C 192.797,264.579 189.131,264.412 185.5,263.5C 185.259,260.206 186.092,257.206 188,254.5C 190.729,251.601 193.562,248.934 196.5,246.5 Z M 309.5,249.5 C 310.263,250.268 311.263,250.768 312.5,251C 311.139,252.584 310.472,254.418 310.5,256.5C 298.724,255.976 287.057,256.81 275.5,259C 264.003,262.836 258.336,270.836 258.5,283C 259.386,291.657 261.886,299.824 266,307.5C 265.448,333.386 252.114,346.719 226,347.5C 203.769,347.391 188.936,337.058 181.5,316.5C 180.901,310.147 182.068,304.147 185,298.5C 188.545,297.434 192.045,297.767 195.5,299.5C 194.873,300.417 194.539,301.417 194.5,302.5C 193.441,307.448 193.274,312.448 194,317.5C 194.139,320.445 195.306,322.779 197.5,324.5C 197.859,326.371 198.859,327.871 200.5,329C 202.818,330.993 205.484,332.159 208.5,332.5C 213.561,334.423 218.895,334.923 224.5,334C 228.192,331.978 229.192,329.145 227.5,325.5C 228.405,324.298 228.405,322.964 227.5,321.5C 227.5,319.167 227.5,316.833 227.5,314.5C 231.519,314.646 235.519,314.979 239.5,315.5C 240.167,315.5 240.833,315.5 241.5,315.5C 242.234,316.708 242.567,318.041 242.5,319.5C 240.094,322.91 237.094,325.576 233.5,327.5C 230.86,330.553 230.86,333.72 233.5,337C 239.989,338.218 245.155,336.051 249,330.5C 255.317,322.585 256.817,313.919 253.5,304.5C 253.5,304.167 253.5,303.833 253.5,303.5C 247.241,289.984 247.407,276.651 254,263.5C 261.165,254.833 270.331,249.666 281.5,248C 290.904,247.269 300.237,247.769 309.5,249.5 Z M 339.5,263.5 C 343.65,267.792 343.317,271.458 338.5,274.5C 331.552,272.847 324.552,271.347 317.5,270C 320.129,264.575 322.629,259.075 325,253.5C 330.817,255.496 335.651,258.83 339.5,263.5 Z M 384.5,256.5 C 392.323,266.152 393.156,276.486 387,287.5C 385.974,283.278 383.807,279.778 380.5,277C 383.655,270.544 384.988,263.71 384.5,256.5 Z M 151.5,288.5 C 150.967,285.475 149.133,284.142 146,284.5C 142.583,284.575 140.25,286.241 139,289.5C 138.28,287.944 137.113,286.944 135.5,286.5C 130.65,279.461 127.65,271.628 126.5,263C 126.796,261.112 127.296,259.278 128,257.5C 134.193,266.681 142.693,272.514 153.5,275C 156.106,279.935 159.106,284.602 162.5,289C 166.518,289.919 170.185,291.586 173.5,294C 172.407,296.443 171.407,298.943 170.5,301.5C 164.054,302.743 158.054,301.576 152.5,298C 152.957,297.586 153.291,297.086 153.5,296.5C 152.92,293.689 152.254,291.023 151.5,288.5 Z M 374.5,304.5 C 372.902,308.007 370.569,311.007 367.5,313.5C 366.167,314.167 365.167,315.167 364.5,316.5C 361.982,317.264 359.649,318.264 357.5,319.5C 356.416,317.185 354.749,315.352 352.5,314C 348.5,313.333 344.5,313.333 340.5,314C 316.479,324.622 295.646,320.122 278,300.5C 274.255,295.179 271.755,289.346 270.5,283C 270.966,277.031 273.966,272.864 279.5,270.5C 278.195,288.37 286.195,299.87 303.5,305C 308.784,306.158 314.117,306.992 319.5,307.5C 329.774,306.019 339.941,304.019 350,301.5C 354.323,303.16 358.823,303.993 363.5,304C 365.886,302.156 367.053,299.656 367,296.5C 369.378,294.291 371.545,291.958 373.5,289.5C 375.629,294.394 375.962,299.394 374.5,304.5 Z M 232.5,289.5 C 223.878,292.457 218.878,298.457 217.5,307.5C 216.674,312.316 216.174,317.316 216,322.5C 209.382,320.713 205.882,316.38 205.5,309.5C 208.534,297.248 215.534,288.082 226.5,282C 229.5,280.833 232.5,279.667 235.5,278.5C 236.484,281.428 236.817,284.428 236.5,287.5C 234.62,287.229 233.287,287.896 232.5,289.5 Z M 241.5,302.5 C 241.414,303.496 241.748,304.329 242.5,305C 240.866,305.494 239.199,305.66 237.5,305.5C 236.081,304.549 234.415,304.216 232.5,304.5C 232.167,304.5 231.833,304.5 231.5,304.5C 234.381,299.319 237.714,298.652 241.5,302.5 Z M 276.5,323.5 C 279.001,323.511 279.168,324.178 277,325.5C 276.536,324.906 276.369,324.239 276.5,323.5 Z M 291.5,326.5 C 294.48,327.829 297.48,329.162 300.5,330.5C 305.925,339.422 313.591,345.589 323.5,349C 329.442,350.87 335.442,352.536 341.5,354C 335.524,357.579 329.19,359.079 322.5,358.5C 321.093,355.515 319.093,353.015 316.5,351C 311.145,347.882 305.478,345.549 299.5,344C 293.842,339.208 291.176,333.375 291.5,326.5 Z M 326.5,330.5 C 335.75,332.064 345.083,332.731 354.5,332.5C 354.492,335.545 354.159,338.545 353.5,341.5C 341.425,342.638 330.425,339.805 320.5,333C 322.852,332.76 324.852,331.927 326.5,330.5 Z M 281.5,339.5 C 282.272,343.598 284.272,346.931 287.5,349.5C 287.833,351.833 289.167,353.167 291.5,353.5C 294.192,356.181 297.525,357.514 301.5,357.5C 303.611,358.736 305.611,360.236 307.5,362C 300.554,363.791 293.554,363.958 286.5,362.5C 279.883,358.27 274.883,352.603 271.5,345.5C 270.55,342.932 270.55,340.432 271.5,338C 275.167,337.063 278.501,337.563 281.5,339.5 Z"/></g>
<g><path style="opacity:0.099" fill="#919191" d="M 197.5,149.5 C 203.509,149.334 209.509,149.501 215.5,150C 207.393,150.279 199.393,150.946 191.5,152C 192.416,151.722 193.082,151.222 193.5,150.5C 194.568,149.566 195.901,149.232 197.5,149.5 Z"/></g>
<g><path style="opacity:0.451" fill="#8b8b8b" d="M 237.5,156.5 C 240.187,156.336 242.854,156.503 245.5,157C 243.545,159.071 241.212,159.738 238.5,159C 237.748,158.329 237.414,157.496 237.5,156.5 Z"/></g>
<g><path style="opacity:0.078" fill="#c0c0c0" d="M 179.5,155.5 C 180.873,155.343 182.207,155.51 183.5,156C 181.754,156.471 180.087,157.138 178.5,158C 175.017,162.201 170.684,164.535 165.5,165C 166.416,164.722 167.082,164.222 167.5,163.5C 171.202,160.479 175.202,157.812 179.5,155.5 Z"/></g>
<g><path style="opacity:0.049" fill="#bfbfbf" d="M 160.5,165.5 C 161.873,165.343 163.207,165.51 164.5,166C 153.424,169.743 143.924,175.909 136,184.5C 135.536,183.906 135.369,183.239 135.5,182.5C 141.961,174.032 150.294,168.365 160.5,165.5 Z"/></g>
<g><path style="opacity:0.068" fill="#c8c8c8" d="M 314.5,173.5 C 311.28,171.397 308.28,169.064 305.5,166.5C 305.369,165.761 305.536,165.094 306,164.5C 310.115,166.948 313.948,169.781 317.5,173C 316.552,173.483 315.552,173.649 314.5,173.5 Z"/></g>
<g><path style="opacity:0.153" fill="#b4b5b4" d="M 328.5,167.5 C 326.302,167.409 325.969,168.075 327.5,169.5C 327.631,170.239 327.464,170.906 327,171.5C 325.167,169.667 323.333,167.833 321.5,166C 322,165.5 322.5,165 323,164.5C 326.45,165.383 329.95,166.216 333.5,167C 331.866,167.494 330.199,167.66 328.5,167.5 Z"/></g>
<g><path style="opacity:0.18" fill="#bebebe" d="M 224.5,172.5 C 226.294,170.203 228.294,168.037 230.5,166C 228.807,165.153 227.14,164.32 225.5,163.5C 225.369,162.624 225.702,161.957 226.5,161.5C 228.996,162.58 231.33,163.914 233.5,165.5C 230.313,168.853 227.313,172.353 224.5,176C 223.092,176.315 221.759,175.982 220.5,175C 222.437,174.878 223.77,174.045 224.5,172.5 Z"/></g>
<g><path style="opacity:0.498" fill="#676767" d="M 174.5,174.5 C 174.461,173.244 174.961,172.244 176,171.5C 176.585,172.998 176.085,173.998 174.5,174.5 Z"/></g>
<g><path style="opacity:0.549" fill="#828282" d="M 162.5,179.5 C 162.649,178.448 162.483,177.448 162,176.5C 160.644,177.38 159.144,177.714 157.5,177.5C 159.539,176.422 161.706,175.422 164,174.5C 164.203,176.391 163.703,178.057 162.5,179.5 Z"/></g>
<g><path style="opacity:0.553" fill="#525253" d="M 174.5,174.5 C 174.539,175.756 174.039,176.756 173,177.5C 172.415,176.002 172.915,175.002 174.5,174.5 Z"/></g>
<g><path style="opacity:0.083" fill="#cccbcb" d="M 162.5,179.5 C 161.935,184.149 161.435,188.816 161,193.5C 157.368,196.13 154.035,199.13 151,202.5C 150.536,201.906 150.369,201.239 150.5,200.5C 152.834,197.334 155.667,194.667 159,192.5C 159.815,187.648 159.648,182.981 158.5,178.5C 157.153,179.028 155.819,179.195 154.5,179C 155.244,177.961 156.244,177.461 157.5,177.5C 159.144,177.714 160.644,177.38 162,176.5C 162.483,177.448 162.649,178.448 162.5,179.5 Z"/></g>
<g><path style="opacity:0.08" fill="#c7c7c7" d="M 264.5,169.5 C 264.918,170.222 265.584,170.722 266.5,171C 259.282,172.824 253.282,176.991 248.5,183.5C 244.197,184.249 239.864,184.082 235.5,183C 238.482,182.502 241.482,182.335 244.5,182.5C 248.312,178.539 252.645,175.039 257.5,172C 259.65,170.589 261.984,169.755 264.5,169.5 Z"/></g>
<g><path style="opacity:0.107" fill="#c3c3c3" d="M 201.5,189.5 C 204.824,186.878 208.49,184.711 212.5,183C 209.5,182.333 206.5,182.333 203.5,183C 199.291,183.886 196.291,186.219 194.5,190C 195.158,192.5 196.491,193 198.5,191.5C 199.239,191.369 199.906,191.536 200.5,192C 199,193.5 197.5,195 196,196.5C 190.37,190.055 191.87,185.055 200.5,181.5C 201.086,181.709 201.586,182.043 202,182.5C 203.698,181.267 205.698,180.6 208,180.5C 211.385,181.197 214.551,181.697 217.5,182C 218.993,183.156 218.826,183.99 217,184.5C 214.38,185.206 211.88,186.206 209.5,187.5C 208.914,187.291 208.414,186.957 208,186.5C 206.225,188.394 204.225,190.061 202,191.5C 201.536,190.906 201.369,190.239 201.5,189.5 Z M 201.5,189.5 C 199.973,189.427 198.973,190.094 198.5,191.5C 196.491,193 195.158,192.5 194.5,190C 196.291,186.219 199.291,183.886 203.5,183C 206.5,182.333 209.5,182.333 212.5,183C 208.49,184.711 204.824,186.878 201.5,189.5 Z"/></g>
<g><path style="opacity:0.659" fill="#565658" d="M 258.5,184.5 C 258.167,185.833 257.833,187.167 257.5,188.5C 256.147,186.872 256.481,185.538 258.5,184.5 Z"/></g>
<g><path style="opacity:0.063" fill="#cecece" d="M 309.5,201.5 C 306.065,197.562 302.398,193.729 298.5,190C 288.468,181.658 277.134,178.992 264.5,182C 258.037,184.976 258.037,187.476 264.5,189.5C 265.463,190.363 265.463,191.03 264.5,191.5C 262.055,190.688 259.722,189.688 257.5,188.5C 257.833,187.167 258.167,185.833 258.5,184.5C 260.071,181.769 262.405,179.935 265.5,179C 285.433,177.133 300.766,184.633 311.5,201.5C 311.03,202.463 310.363,202.463 309.5,201.5 Z"/></g>
<g><path style="opacity:0.478" fill="#777777" d="M 366.5,191.5 C 368.085,192.002 368.585,193.002 368,194.5C 366.961,193.756 366.461,192.756 366.5,191.5 Z"/></g>
<g><path style="opacity:0.065" fill="#c5c5c5" d="M 373.5,182.5 C 378.212,187.944 381.212,194.278 382.5,201.5C 382.66,203.199 382.494,204.866 382,206.5C 380.124,198.081 376.624,190.415 371.5,183.5C 371.957,182.702 372.624,182.369 373.5,182.5 Z"/></g>
<g><path style="opacity:0.096" fill="#c3c3c3" d="M 256.5,202.5 C 256.953,201.542 257.619,200.708 258.5,200C 254.958,198.725 251.625,197.225 248.5,195.5C 247.537,194.637 247.537,193.97 248.5,193.5C 253.037,195.121 257.371,197.121 261.5,199.5C 260.868,201.965 259.368,203.631 257,204.5C 256.536,203.906 256.369,203.239 256.5,202.5 Z"/></g>
<g><path style="opacity:0.086" fill="#bcbcbc" d="M 351.5,205.5 C 350.158,202.834 348.325,200.501 346,198.5C 345.601,198.728 345.435,199.062 345.5,199.5C 344.778,199.918 344.278,200.584 344,201.5C 342.655,199.17 342.488,196.837 343.5,194.5C 347.833,196.833 351.167,200.167 353.5,204.5C 353.043,205.298 352.376,205.631 351.5,205.5 Z"/></g>
<g><path style="opacity:0.175" fill="#c4c4c4" d="M 293.5,200.5 C 296.917,202.592 299.25,205.592 300.5,209.5C 300.649,210.552 300.483,211.552 300,212.5C 298.324,207.822 295.491,203.989 291.5,201C 292.094,200.536 292.761,200.369 293.5,200.5 Z"/></g>
<g><path style="opacity:0.588" fill="#3d3d3d" d="M 371.5,200.5 C 372.404,201.209 372.737,202.209 372.5,203.5C 369.482,203.665 366.482,203.498 363.5,203C 366.675,203.053 369.342,202.22 371.5,200.5 Z"/></g>
<g><path style="opacity:0.282" fill="#979797" d="M 335.5,205.5 C 335.343,204.127 335.51,202.793 336,201.5C 337.25,204.077 337.584,206.743 337,209.5C 336.79,207.942 336.29,206.609 335.5,205.5 Z"/></g>
<g><path style="opacity:0.119" fill="#a3a3a3" d="M 121.5,206.5 C 124.113,207.095 124.113,207.929 121.5,209C 122.022,209.561 122.355,210.228 122.5,211C 121.285,219.079 120.618,219.246 120.5,211.5C 120.366,209.708 120.699,208.042 121.5,206.5 Z"/></g>
<g><path style="opacity:0.101" fill="#b3b3b3" d="M 141.5,220.5 C 141.294,217.505 141.96,214.838 143.5,212.5C 144.363,211.537 145.03,211.537 145.5,212.5C 143.382,218.307 142.215,224.307 142,230.5C 141.502,227.183 141.335,223.85 141.5,220.5 Z"/></g>
<g><path style="opacity:0.064" fill="#c0c0c0" d="M 176.5,214.5 C 178.5,214.5 180.5,214.5 182.5,214.5C 182.649,215.552 182.483,216.552 182,217.5C 179.667,219.167 177.333,220.833 175,222.5C 174.308,221.975 173.808,221.308 173.5,220.5C 174.559,218.466 175.559,216.466 176.5,214.5 Z"/></g>
<g><path style="opacity:0.101" fill="#b0b0b0" d="M 283.5,215.5 C 284.263,216.268 285.263,216.768 286.5,217C 284.559,217.743 282.726,217.576 281,216.5C 279.663,218.004 277.996,219.004 276,219.5C 275.667,219.167 275.333,218.833 275,218.5C 274.08,221.101 273.413,223.768 273,226.5C 272.505,224.527 272.338,222.527 272.5,220.5C 272.574,218.589 273.574,217.422 275.5,217C 278.117,216.178 280.784,215.678 283.5,215.5 Z"/></g>
<g><path style="opacity:0.569" fill="#666666" d="M 315.5,216.5 C 316.043,216.56 316.376,216.893 316.5,217.5C 313.894,218.652 311.227,218.818 308.5,218C 311.036,217.814 313.369,217.314 315.5,216.5 Z"/></g>
<g><path style="opacity:0.769" fill="#464646" d="M 237.5,227.5 C 238.473,227.987 239.473,228.487 240.5,229C 238.843,229.725 237.843,229.225 237.5,227.5 Z"/></g>
<g><path style="opacity:0.839" fill="#2f2f32" d="M 282.5,227.5 C 283.289,227.783 283.956,228.283 284.5,229C 283.184,229.528 282.517,229.028 282.5,227.5 Z"/></g>
<g><path style="opacity:0.096" fill="#a2a2a2" d="M 210.5,230.5 C 212.527,230.338 214.527,230.505 216.5,231C 212.124,231.851 207.791,232.517 203.5,233C 204.416,232.722 205.082,232.222 205.5,231.5C 206.919,230.549 208.585,230.216 210.5,230.5 Z"/></g>
<g><path style="opacity:0.463" fill="#7a7a7a" d="M 274.5,230.5 C 276.085,231.002 276.585,232.002 276,233.5C 274.961,232.756 274.461,231.756 274.5,230.5 Z"/></g>
<g><path style="opacity:0.076" fill="#b3b3b3" d="M 198.5,233.5 C 199.873,233.343 201.207,233.51 202.5,234C 198.901,235.309 195.401,236.809 192,238.5C 191.536,237.906 191.369,237.239 191.5,236.5C 193.426,234.707 195.759,233.707 198.5,233.5 Z"/></g>
<g><path style="opacity:0.549" fill="#3e3e40" d="M 249.5,234.5 C 250.043,234.56 250.376,234.893 250.5,235.5C 249.635,236.583 248.635,236.749 247.5,236C 248.416,235.722 249.082,235.222 249.5,234.5 Z"/></g>
<g><path style="opacity:0.076" fill="#c4c4c4" d="M 262.5,232.5 C 264.193,235.19 266.527,237.19 269.5,238.5C 269.918,239.222 270.584,239.722 271.5,240C 266.392,240.441 262.726,238.274 260.5,233.5C 260.957,232.702 261.624,232.369 262.5,232.5 Z"/></g>
<g><path style="opacity:0.054" fill="#c8c8c8" d="M 241.5,239.5 C 245.016,242.164 247.85,245.497 250,249.5C 252.074,247.548 254.241,245.715 256.5,244C 255.619,243.292 254.953,242.458 254.5,241.5C 253.972,240.153 253.805,238.819 254,237.5C 255.643,239.977 257.476,242.31 259.5,244.5C 256.133,247.608 252.633,250.608 249,253.5C 246.803,251.97 245.97,250.136 246.5,248C 244.183,245.403 241.35,242.569 238,239.5C 237.312,238.668 237.479,238.002 238.5,237.5C 239.518,238.193 240.518,238.859 241.5,239.5 Z M 254.5,241.5 C 254.953,242.458 255.619,243.292 256.5,244C 254.241,245.715 252.074,247.548 250,249.5C 247.85,245.497 245.016,242.164 241.5,239.5C 244.408,239.914 247.408,239.248 250.5,237.5C 251.84,238.867 253.173,240.2 254.5,241.5 Z"/></g>
<g><path style="opacity:0.776" fill="#4c4c4c" d="M 388.5,238.5 C 389.797,240.693 389.797,243.027 388.5,245.5C 388.295,243.448 388.295,241.114 388.5,238.5 Z"/></g>
<g><path style="opacity:0.198" fill="#c2c2c2" d="M 328.5,242.5 C 332.297,242.872 335.63,244.206 338.5,246.5C 339.463,247.363 339.463,248.03 338.5,248.5C 334.031,246.177 329.364,244.343 324.5,243C 325.793,242.51 327.127,242.343 328.5,242.5 Z"/></g>
<g><path style="opacity:0.108" fill="#969696" d="M 310.5,256.5 C 310.472,254.418 311.139,252.584 312.5,251C 311.263,250.768 310.263,250.268 309.5,249.5C 311.239,248.566 312.905,248.566 314.5,249.5C 314.634,252.467 313.634,255.301 311.5,258C 304.167,258.667 296.833,258.667 289.5,258C 296.679,257.829 303.679,257.329 310.5,256.5 Z"/></g>
<g><path style="opacity:0.093" fill="#c5c5c5" d="M 221.5,251.5 C 225.435,255.033 228.101,259.366 229.5,264.5C 229.435,269.696 228.768,269.696 227.5,264.5C 225.402,259.633 222.069,255.133 217.5,251C 218.819,250.805 220.153,250.972 221.5,251.5 Z"/></g>
<g><path style="opacity:0.088" fill="#c1c0c0" d="M 239.5,265.5 C 239.421,264.07 239.754,262.736 240.5,261.5C 238.88,258.596 237.547,255.596 236.5,252.5C 236.393,250.621 236.893,250.288 238,251.5C 239.455,254.912 241.288,258.079 243.5,261C 242.283,262.648 241.45,264.481 241,266.5C 238.821,267.84 238.321,267.507 239.5,265.5 Z"/></g>
<g><path style="opacity:0.671" fill="#282828" d="M 382.5,251.5 C 383.239,251.369 383.906,251.536 384.5,252C 383.718,254.74 383.218,257.574 383,260.5C 382.502,257.518 382.335,254.518 382.5,251.5 Z"/></g>
<g><path style="opacity:0.102" fill="#c4c4c7" d="M 363.5,259.5 C 362.934,262.873 361.601,265.873 359.5,268.5C 358.624,268.631 357.957,268.298 357.5,267.5C 360.18,263.144 362.013,258.478 363,253.5C 363.495,255.473 363.662,257.473 363.5,259.5 Z"/></g>
<g><path style="opacity:0.073" fill="#c5c5c5" d="M 216.5,263.5 C 215.883,263.389 215.383,263.056 215,262.5C 214.576,265.025 213.41,267.025 211.5,268.5C 210.761,268.631 210.094,268.464 209.5,268C 210.961,265.579 212.294,263.079 213.5,260.5C 214.5,259.167 215.5,259.167 216.5,260.5C 217.167,261.5 217.833,262.5 218.5,263.5C 218.03,264.463 217.363,264.463 216.5,263.5 Z"/></g>
<g><path style="opacity:0.502" fill="#6e6f71" d="M 251.5,262.5 C 252.713,263.497 252.546,264.497 251,265.5C 250.53,264.423 250.697,263.423 251.5,262.5 Z"/></g>
<g><path style="opacity:0.112" fill="#bcbcbc" d="M 338.5,274.5 C 343.317,271.458 343.65,267.792 339.5,263.5C 340.222,263.082 340.722,262.416 341,261.5C 342.781,264.333 344.281,267.333 345.5,270.5C 342.566,275.633 338.233,277.467 332.5,276C 334.708,275.809 336.708,275.309 338.5,274.5 Z"/></g>
<g><path style="opacity:0.086" fill="#c4c4c4" d="M 184.5,240.5 C 184.649,241.552 184.483,242.552 184,243.5C 176.663,250.849 174.33,259.516 177,269.5C 179.225,270.939 181.225,272.606 183,274.5C 183.561,273.978 184.228,273.645 185,273.5C 188.461,274.218 191.961,274.718 195.5,275C 192.518,275.498 189.518,275.665 186.5,275.5C 180.885,275.612 176.718,273.279 174,268.5C 172.105,257.006 175.605,247.673 184.5,240.5 Z"/></g>
<g><path style="opacity:0.424" fill="#6b6b6d" d="M 290.5,277.5 C 296.167,277.664 296.5,277.997 291.5,278.5C 290.997,283.5 290.664,283.167 290.5,277.5 Z"/></g>
<g><path style="opacity:0.051" fill="#a3a3a3" d="M 325.5,283.5 C 324.209,283.737 323.209,283.404 322.5,282.5C 320.369,281.686 318.036,281.186 315.5,281C 318.697,280.013 321.53,280.513 324,282.5C 325.868,281.328 327.702,281.495 329.5,283C 328.207,283.49 326.873,283.657 325.5,283.5 Z"/></g>
<g><path style="opacity:0.467" fill="#878787" d="M 237.5,275.5 C 238.297,290.463 238.297,291.13 237.5,277.5C 236.127,277.657 234.793,277.49 233.5,277C 235.058,276.79 236.391,276.29 237.5,275.5 Z"/></g>
<g><path style="opacity:0.028" fill="#d4d4d4" d="M 151.5,288.5 C 150.833,288.5 150.5,288.833 150.5,289.5C 148.992,286.75 146.659,285.916 143.5,287C 142.044,289.266 141.21,291.766 141,294.5C 137.833,292.667 135.333,290.167 133.5,287C 134.094,286.536 134.761,286.369 135.5,286.5C 137.113,286.944 138.28,287.944 139,289.5C 140.25,286.241 142.583,284.575 146,284.5C 149.133,284.142 150.967,285.475 151.5,288.5 Z"/></g>
<g><path style="opacity:0.718" fill="#3d3d3d" d="M 384.5,289.5 C 385.234,290.878 385.901,292.378 386.5,294C 386.167,294.167 385.833,294.333 385.5,294.5C 384.548,292.955 384.215,291.288 384.5,289.5 Z"/></g>
<g><path style="opacity:0.408" fill="#686868" d="M 127.5,292.5 C 129.085,293.002 129.585,294.002 129,295.5C 127.961,294.756 127.461,293.756 127.5,292.5 Z"/></g>
<g><path style="opacity:0.431" fill="#959595" d="M 150.5,289.5 C 151.198,292.897 151.865,296.397 152.5,300C 152.167,300.167 151.833,300.333 151.5,300.5C 150.511,296.893 150.177,293.226 150.5,289.5 Z"/></g>
<g><path style="opacity:0.096" fill="#cecece" d="M 232.5,289.5 C 233.239,289.369 233.906,289.536 234.5,290C 230.656,292.422 226.99,295.089 223.5,298C 223.833,298.333 224.167,298.667 224.5,299C 221.769,301.626 219.936,304.793 219,308.5C 218.617,307.944 218.117,307.611 217.5,307.5C 218.878,298.457 223.878,292.457 232.5,289.5 Z"/></g>
<g><path style="opacity:0.49" fill="#737476" d="M 394.5,296.5 C 394.461,295.244 394.961,294.244 396,293.5C 396.585,294.998 396.085,295.998 394.5,296.5 Z"/></g>
<g><path style="opacity:0.361" fill="#737375" d="M 394.5,296.5 C 394.539,297.756 394.039,298.756 393,299.5C 392.415,298.002 392.915,297.002 394.5,296.5 Z"/></g>
<g><path style="opacity:0.085" fill="#c8c8c8" d="M 145.5,308.5 C 139.631,306.404 134.631,303.071 130.5,298.5C 130.369,297.761 130.536,297.094 131,296.5C 136.197,301.19 142.031,305.023 148.5,308C 147.552,308.483 146.552,308.649 145.5,308.5 Z"/></g>
<g><path style="opacity:0.278" fill="#777777" d="M 356.5,300.5 C 357.473,300.987 358.473,301.487 359.5,302C 357.843,302.725 356.843,302.225 356.5,300.5 Z"/></g>
<g><path style="opacity:0.137" fill="#c4c6c6" d="M 194.5,302.5 C 194.539,301.417 194.873,300.417 195.5,299.5C 192.045,297.767 188.545,297.434 185,298.5C 182.068,304.147 180.901,310.147 181.5,316.5C 181.657,317.873 181.49,319.207 181,320.5C 178.686,312.264 179.353,304.264 183,296.5C 188.165,295.536 193.331,295.87 198.5,297.5C 197.366,300.07 196.532,302.736 196,305.5C 195.768,304.263 195.268,303.263 194.5,302.5 Z"/></g>
<g><path style="opacity:0.357" fill="#999999" d="M 171.5,302.5 C 172.713,303.497 172.546,304.497 171,305.5C 167.924,304.712 164.758,304.212 161.5,304C 165.025,303.821 168.359,303.321 171.5,302.5 Z"/></g>
<g><path style="opacity:0.596" fill="#444444" d="M 231.5,304.5 C 231.833,304.5 232.167,304.5 232.5,304.5C 229.345,304.819 229.012,304.819 231.5,304.5 Z"/></g>
<g><path style="opacity:0.247" fill="#8c908e" d="M 253.5,303.5 C 253.5,303.833 253.5,304.167 253.5,304.5C 253.468,312.386 252.802,312.386 251.5,304.5C 251.957,303.702 252.624,303.369 253.5,303.5 Z"/></g>
<g><path style="opacity:0.533" fill="#606060" d="M 237.5,305.5 C 239.199,305.66 240.866,305.494 242.5,305C 241.748,304.329 241.414,303.496 241.5,302.5C 242.968,302.694 243.635,304.028 243.5,306.5C 241.265,306.795 239.265,306.461 237.5,305.5 Z"/></g>
<g><path style="opacity:0.071" fill="#c0c0c0" d="M 367.5,313.5 C 370.569,311.007 372.902,308.007 374.5,304.5C 375.363,303.537 376.03,303.537 376.5,304.5C 375.056,309.45 372.223,313.45 368,316.5C 367.517,315.552 367.351,314.552 367.5,313.5 Z"/></g>
<g><path style="opacity:0.392" fill="#acaead" d="M 203.5,305.5 C 204.611,309.664 205.111,313.997 205,318.5C 203.633,314.3 203.133,309.967 203.5,305.5 Z"/></g>
<g><path style="opacity:0.761" fill="#5a5a5a" d="M 239.5,315.5 C 240.919,314.549 242.585,314.216 244.5,314.5C 244.657,315.873 244.49,317.207 244,318.5C 243.764,316.881 242.931,315.881 241.5,315.5C 240.833,315.5 240.167,315.5 239.5,315.5 Z"/></g>
<g><path style="opacity:0.605" fill="#535353" d="M 217.5,309.5 C 218.487,314.305 218.821,319.305 218.5,324.5C 214.162,324.378 213.828,324.045 217.5,323.5C 217.5,318.833 217.5,314.167 217.5,309.5 Z"/></g>
<g><path style="opacity:0.085" fill="#b5b5b5" d="M 364.5,316.5 C 365.773,317.077 365.773,317.743 364.5,318.5C 361.397,320.312 358.064,321.312 354.5,321.5C 354.329,318.203 354.995,317.869 356.5,320.5C 357.107,320.376 357.44,320.043 357.5,319.5C 359.649,318.264 361.982,317.264 364.5,316.5 Z"/></g>
<g><path style="opacity:0.062" fill="#c2c2c2" d="M 208.5,332.5 C 205.484,332.159 202.818,330.993 200.5,329C 198.859,327.871 197.859,326.371 197.5,324.5C 197.369,323.761 197.536,323.094 198,322.5C 201.99,327.579 207.157,330.745 213.5,332C 211.866,332.494 210.199,332.66 208.5,332.5 Z"/></g>
<g><path style="opacity:0.714" fill="#646464" d="M 227.5,321.5 C 228.405,322.964 228.405,324.298 227.5,325.5C 226.259,327.324 226.259,325.991 227.5,321.5 Z"/></g>
<g><path style="opacity:0.067" fill="#a7a7a7" d="M 242.5,319.5 C 243.525,319.897 243.692,320.563 243,321.5C 239.973,324.527 236.973,327.527 234,330.5C 233.517,329.552 233.351,328.552 233.5,327.5C 237.094,325.576 240.094,322.91 242.5,319.5 Z"/></g>
<g><path style="opacity:0.635" fill="#333333" d="M 273.5,325.5 C 275.086,326.148 276.753,326.648 278.5,327C 277.667,327.167 276.833,327.333 276,327.5C 274.624,327.316 273.791,326.649 273.5,325.5 Z"/></g>
<g><path style="opacity:0.4" fill="#777878" d="M 354.5,330.5 C 354.56,329.957 354.893,329.624 355.5,329.5C 356.657,332.784 356.824,336.118 356,339.5C 355.819,336.305 355.319,333.305 354.5,330.5 Z"/></g>
<g><path style="opacity:0.475" fill="#7f807f" d="M 364.5,326.5 C 365.239,326.369 365.906,326.536 366.5,327C 365.718,329.74 365.218,332.574 365,335.5C 364.502,332.518 364.335,329.518 364.5,326.5 Z"/></g>
<g><path style="opacity:0.318" fill="#969796" d="M 269.5,335.5 C 275.853,335.453 276.02,336.119 270,337.5C 269.667,339.5 269.333,341.5 269,343.5C 268.278,340.739 268.445,338.073 269.5,335.5 Z"/></g>
<g><path style="opacity:0.073" fill="#c6c6c6" d="M 287.5,349.5 C 284.272,346.931 282.272,343.598 281.5,339.5C 281.351,338.448 281.517,337.448 282,336.5C 283.871,341.081 286.371,345.248 289.5,349C 288.906,349.464 288.239,349.631 287.5,349.5 Z"/></g>
<g><path style="opacity:0.068" fill="#cacaca" d="M 209.5,357.5 C 200.017,355.761 192.017,351.428 185.5,344.5C 185.369,343.761 185.536,343.094 186,342.5C 193.191,349.225 200.858,353.558 209,355.5C 215.739,356.685 215.906,357.351 209.5,357.5 Z"/></g>
<g><path style="opacity:0.737" fill="#393939" d="M 341.5,352.5 C 343.035,351.212 344.701,351.212 346.5,352.5C 345.113,352.807 343.446,352.807 341.5,352.5 Z"/></g>
<g><path style="opacity:0.163" fill="#cacaca" d="M 271.5,345.5 C 274.883,352.603 279.883,358.27 286.5,362.5C 287.263,363.268 288.263,363.768 289.5,364C 283.535,363.423 278.701,360.59 275,355.5C 272.449,352.076 270.782,348.41 270,344.5C 270.383,345.056 270.883,345.389 271.5,345.5 Z"/></g>
<g><path style="opacity:0.078" fill="#c5c5c5" d="M 301.5,357.5 C 297.525,357.514 294.192,356.181 291.5,353.5C 291.369,352.761 291.536,352.094 292,351.5C 294,352.167 295.333,353.5 296,355.5C 298.925,354.677 301.758,355.177 304.5,357C 303.552,357.483 302.552,357.649 301.5,357.5 Z"/></g>
</svg>
