<?xml version="1.0" encoding="UTF-8"?>
<!DOCTYPE svg PUBLIC "-//W3C//DTD SVG 1.1//EN" "http://www.w3.org/Graphics/SVG/1.1/DTD/svg11.dtd">
<svg xmlns="http://www.w3.org/2000/svg" version="1.1" width="500px" height="500px" style="shape-rendering:geometricPrecision; text-rendering:geometricPrecision; image-rendering:optimizeQuality; fill-rule:evenodd; clip-rule:evenodd" xmlns:xlink="http://www.w3.org/1999/xlink">
<g><path style="opacity:0.977" fill="#090909" d="M 348.5,362.5 C 348.5,363.167 348.167,363.5 347.5,363.5C 345.62,363.229 344.287,363.896 343.5,365.5C 341.703,366.73 339.703,367.396 337.5,367.5C 330.518,368.124 323.518,368.624 316.5,369C 297.536,378.866 281.036,375.699 267,359.5C 264.736,355.296 262.236,351.296 259.5,347.5C 236.971,361.945 214.304,362.111 191.5,348C 179.534,339.634 172.868,328.134 171.5,313.5C 143.382,312.363 125.216,298.363 117,271.5C 116.333,265.5 116.333,259.5 117,253.5C 118.66,249.023 120.16,244.523 121.5,240C 116.742,206.515 129.408,182.181 159.5,167C 163.347,165.384 167.347,164.384 171.5,164C 186.941,150.225 204.607,146.392 224.5,152.5C 236.003,147.547 247.669,147.214 259.5,151.5C 276.015,146.729 292.015,148.229 307.5,156C 336.141,153.742 358.641,164.242 375,187.5C 379.077,193.982 381.743,200.982 383,208.5C 395.697,221.92 400.697,237.92 398,256.5C 404.015,272.215 402.015,286.882 392,300.5C 390.333,301.833 388.667,303.167 387,304.5C 386.75,307.754 385.75,310.754 384,313.5C 380.535,315.963 377.369,318.796 374.5,322C 371.333,323.833 368.167,325.667 365,327.5C 365.93,342.303 360.43,353.97 348.5,362.5 Z M 326.5,168.5 C 346.16,171.544 360.493,182.211 369.5,200.5C 367.5,201.833 365.5,201.833 363.5,200.5C 357.964,190.557 349.63,184.224 338.5,181.5C 335.129,176.467 331.129,172.134 326.5,168.5 Z M 203.5,182.5 C 206.518,182.335 209.518,182.502 212.5,183C 206.528,185.815 200.861,188.815 195.5,192C 194.253,190.542 194.253,189.042 195.5,187.5C 197.928,185.295 200.595,183.628 203.5,182.5 Z M 204.5,159.5 C 213.704,159.512 222.37,161.679 230.5,166C 227.984,168.683 225.317,171.183 222.5,173.5C 210.321,169.167 198.654,170.334 187.5,177C 182.755,182.269 181.255,188.436 183,195.5C 183.883,198.102 185.383,200.269 187.5,202C 186.91,203.299 185.91,204.132 184.5,204.5C 175.947,202.782 171.614,197.449 171.5,188.5C 172.751,178.824 177.417,171.324 185.5,166C 191.59,162.738 197.924,160.571 204.5,159.5 Z M 158.5,178.5 C 159.648,182.981 159.815,187.648 159,192.5C 142.707,204.377 137.374,220.044 143,239.5C 145.243,243.748 148.243,247.414 152,250.5C 152.477,253.953 151.977,257.286 150.5,260.5C 139.044,254.278 132.544,244.611 131,231.5C 130.123,218.005 133.457,205.672 141,194.5C 146.404,188.591 152.237,183.258 158.5,178.5 Z M 267.5,180.5 C 285.178,179.922 299.012,186.922 309,201.5C 311.617,206.183 313.117,211.183 313.5,216.5C 310.126,216.326 306.793,215.826 303.5,215C 298.738,200.578 288.738,193.578 273.5,194C 269.446,191.306 265.112,189.139 260.5,187.5C 259.479,186.998 259.312,186.332 260,185.5C 262.17,183.177 264.67,181.51 267.5,180.5 Z M 198.5,209.5 C 203.799,201.068 211.466,195.901 221.5,194C 234.431,191.991 246.764,193.991 258.5,200C 255.704,203.114 253.038,206.281 250.5,209.5C 248.389,208.051 246.056,207.051 243.5,206.5C 234.59,206.459 225.59,206.626 216.5,207C 210.506,207.944 204.506,208.777 198.5,209.5 Z M 271.5,158.5 C 298.295,159.142 318.128,171.142 331,194.5C 335.111,202.719 336.777,211.386 336,220.5C 332.797,219.69 329.631,218.69 326.5,217.5C 322.367,190.863 307.033,174.697 280.5,169C 265.936,166.292 254.269,170.792 245.5,182.5C 241.906,181.574 238.24,181.241 234.5,181.5C 234.729,179.567 235.562,177.9 237,176.5C 246.392,166.388 257.892,160.388 271.5,158.5 Z M 274.5,205.5 C 280.375,206.103 285.042,208.77 288.5,213.5C 283.303,214.94 278.136,216.607 273,218.5C 270.321,225.38 271.488,231.547 276.5,237C 269.968,239.823 265.135,237.989 262,231.5C 257.936,218.632 262.103,209.965 274.5,205.5 Z M 160.5,206.5 C 161.552,206.351 162.552,206.517 163.5,207C 164.167,209 165.5,210.333 167.5,211C 162.646,216.894 160.48,223.728 161,231.5C 159.235,238.912 156.902,239.246 154,232.5C 152.14,222.898 154.307,214.231 160.5,206.5 Z M 244.5,221.5 C 246.8,221.522 247.967,222.522 248,224.5C 240.378,228.155 239.212,227.155 244.5,221.5 Z M 220.5,218.5 C 223.898,218.18 227.232,218.513 230.5,219.5C 228.833,222.167 227.167,224.833 225.5,227.5C 211.355,228.536 198.021,232.369 185.5,239C 174.314,248.137 171.314,259.304 176.5,272.5C 185.928,277.146 195.594,277.646 205.5,274C 210.144,271.359 213.311,267.525 215,262.5C 216.484,265.469 217.984,268.469 219.5,271.5C 213.359,275.808 207.359,280.308 201.5,285C 191.278,285.685 181.611,283.685 172.5,279C 166.696,274.222 164.029,268.055 164.5,260.5C 165.002,248.996 169.669,239.496 178.5,232C 191.199,223.17 205.199,218.67 220.5,218.5 Z M 345.5,198.5 C 349.507,202.654 353.173,207.154 356.5,212C 375.893,212.282 386.06,222.115 387,241.5C 385.333,240.5 383.667,239.5 382,238.5C 379.479,232.624 376.312,227.124 372.5,222C 364.499,219.285 361.333,222.118 363,230.5C 377.524,252.154 375.191,271.82 356,289.5C 351.16,288.426 346.327,288.592 341.5,290C 329.09,296.342 316.423,297.008 303.5,292C 298.303,289.637 294.637,285.803 292.5,280.5C 292.833,280.167 293.167,279.833 293.5,279.5C 303.106,280.993 312.773,282.16 322.5,283C 332.829,288.334 342.496,287.334 351.5,280C 361.757,269.563 366.257,257.063 365,242.5C 362.935,233.434 357.602,227.1 349,223.5C 348.873,215 347.706,206.667 345.5,198.5 Z M 284.5,227.5 C 305.717,226.032 326.383,229.199 346.5,237C 353.115,242.744 354.615,249.577 351,257.5C 347.002,251.169 341.502,246.669 334.5,244C 320.52,239.254 306.187,236.254 291.5,235C 289.498,232.14 287.165,229.64 284.5,227.5 Z M 249.5,237.5 C 251.909,239.367 254.242,241.534 256.5,244C 254.241,245.715 252.074,247.548 250,249.5C 247.868,245.569 245.035,242.236 241.5,239.5C 244.265,240.007 246.931,239.34 249.5,237.5 Z M 196.5,246.5 C 207.121,252.256 207.121,258.09 196.5,264C 192.797,264.579 189.131,264.412 185.5,263.5C 185.259,260.206 186.092,257.206 188,254.5C 190.729,251.601 193.562,248.934 196.5,246.5 Z M 213.5,240.5 C 217.967,240.133 222.3,240.633 226.5,242C 232.524,247.524 237.19,254.024 240.5,261.5C 239.754,262.736 239.421,264.07 239.5,265.5C 236.572,265.852 233.738,266.518 231,267.5C 230.101,263.462 228.434,259.795 226,256.5C 221.833,251 217,246.167 211.5,242C 212.416,241.722 213.082,241.222 213.5,240.5 Z M 324.5,253.5 C 333.549,255.717 339.549,261.217 342.5,270C 341.451,272.698 339.451,274.198 336.5,274.5C 330.268,272.572 323.935,271.072 317.5,270C 320.25,264.667 322.584,259.167 324.5,253.5 Z M 227.5,325.5 C 227.695,322.044 227.695,318.378 227.5,314.5C 228.833,314.5 230.167,314.5 231.5,314.5C 234.786,315.207 238.119,315.54 241.5,315.5C 242.234,316.708 242.567,318.041 242.5,319.5C 241.833,320.5 241.167,321.5 240.5,322.5C 237.342,324.488 234.509,326.821 232,329.5C 230.672,334.541 232.505,337.207 237.5,337.5C 245.746,335.088 251.246,329.755 254,321.5C 256.052,311.745 254.719,302.412 250,293.5C 245.339,270.658 254.172,255.825 276.5,249C 288.659,246.696 300.659,247.362 312.5,251C 311.139,252.584 310.472,254.418 310.5,256.5C 298.724,255.976 287.057,256.81 275.5,259C 264.003,262.836 258.336,270.836 258.5,283C 259.386,291.657 261.886,299.824 266,307.5C 266.69,319.949 262.523,330.449 253.5,339C 237.895,348.723 221.561,350.056 204.5,343C 189.211,335.582 181.711,323.416 182,306.5C 182.78,303.488 183.947,300.655 185.5,298C 188.953,297.523 192.286,298.023 195.5,299.5C 189.392,324.227 199.059,335.727 224.5,334C 228.192,331.978 229.192,329.145 227.5,325.5 Z M 278.5,270.5 C 279.649,270.791 280.316,271.624 280.5,273C 278.86,287.05 284.526,297.05 297.5,303C 304.632,305.46 311.965,306.96 319.5,307.5C 329.774,306.019 339.941,304.019 350,301.5C 353.622,302.409 357.289,303.409 361,304.5C 365.386,303.761 367.386,301.094 367,296.5C 369.378,294.291 371.545,291.958 373.5,289.5C 377.368,304.502 371.868,314.502 357,319.5C 355.279,314.552 351.779,312.552 346.5,313.5C 337.322,316.221 327.989,318.555 318.5,320.5C 300.655,319.458 286.488,311.791 276,297.5C 271.175,290.444 270.175,283.111 273,275.5C 274.73,273.598 276.563,271.931 278.5,270.5 Z M 384.5,256.5 C 392.323,266.152 393.156,276.486 387,287.5C 385.974,283.278 383.807,279.778 380.5,277C 383.655,270.544 384.988,263.71 384.5,256.5 Z M 127.5,257.5 C 133.931,266.556 142.598,272.39 153.5,275C 156.106,279.935 159.106,284.602 162.5,289C 166.518,289.919 170.185,291.586 173.5,294C 172.407,296.443 171.407,298.943 170.5,301.5C 164.587,302.705 158.92,301.871 153.5,299C 153.039,295.771 152.539,292.271 152,288.5C 149.947,284.708 146.781,283.542 142.5,285C 141.213,286.41 140.046,287.91 139,289.5C 130.104,280.644 126.27,269.977 127.5,257.5 Z M 236.5,299.5 C 237.959,299.433 239.292,299.766 240.5,300.5C 240.751,302.17 241.418,303.67 242.5,305C 240.866,305.494 239.199,305.66 237.5,305.5C 235.5,304.833 233.5,304.167 231.5,303.5C 233.191,302.136 234.858,300.803 236.5,299.5 Z M 234.5,278.5 C 236.388,280.988 237.055,283.988 236.5,287.5C 226.158,290.343 219.658,297.009 217,307.5C 216.667,312.5 216.333,317.5 216,322.5C 209.382,320.713 205.882,316.38 205.5,309.5C 208.534,297.248 215.534,288.082 226.5,282C 229.374,281.058 232.04,279.891 234.5,278.5 Z M 276.5,323.5 C 279.001,323.511 279.168,324.178 277,325.5C 276.536,324.906 276.369,324.239 276.5,323.5 Z M 326.5,330.5 C 335.75,332.064 345.083,332.731 354.5,332.5C 354.492,335.545 354.159,338.545 353.5,341.5C 341.425,342.638 330.425,339.805 320.5,333C 322.852,332.76 324.852,331.927 326.5,330.5 Z M 291.5,326.5 C 294.48,327.829 297.48,329.162 300.5,330.5C 305.925,339.422 313.591,345.589 323.5,349C 329.442,350.87 335.442,352.536 341.5,354C 335.524,357.579 329.19,359.079 322.5,358.5C 321.093,355.515 319.093,353.015 316.5,351C 311.145,347.882 305.478,345.549 299.5,344C 293.842,339.208 291.176,333.375 291.5,326.5 Z M 271.5,337.5 C 274.572,337.183 277.572,337.516 280.5,338.5C 282.61,343.888 285.61,348.721 289.5,353C 295.678,355.705 301.678,358.705 307.5,362C 289.04,367.187 276.873,360.687 271,342.5C 270.36,340.735 270.527,339.068 271.5,337.5 Z"/></g>
<g><path style="opacity:0.196" fill="#ebebeb" d="M 348.5,362.5 C 360.43,353.97 365.93,342.303 365,327.5C 368.167,325.667 371.333,323.833 374.5,322C 377.369,318.796 380.535,315.963 384,313.5C 385.75,310.754 386.75,307.754 387,304.5C 388.667,303.167 390.333,301.833 392,300.5C 402.015,286.882 404.015,272.215 398,256.5C 400.697,237.92 395.697,221.92 383,208.5C 381.743,200.982 379.077,193.982 375,187.5C 358.641,164.242 336.141,153.742 307.5,156C 292.015,148.229 276.015,146.729 259.5,151.5C 247.669,147.214 236.003,147.547 224.5,152.5C 204.607,146.392 186.941,150.225 171.5,164C 167.347,164.384 163.347,165.384 159.5,167C 129.408,182.181 116.742,206.515 121.5,240C 120.16,244.523 118.66,249.023 117,253.5C 116.333,259.5 116.333,265.5 117,271.5C 125.216,298.363 143.382,312.363 171.5,313.5C 172.868,328.134 179.534,339.634 191.5,348C 214.304,362.111 236.971,361.945 259.5,347.5C 262.236,351.296 264.736,355.296 267,359.5C 281.036,375.699 297.536,378.866 316.5,369C 323.518,368.624 330.518,368.124 337.5,367.5C 337.559,369.765 336.726,370.098 335,368.5C 325.358,369.006 316.191,371.173 307.5,375C 285.319,378.66 269.152,370.493 259,350.5C 253.59,354.955 247.423,357.955 240.5,359.5C 217.431,363.343 197.264,357.009 180,340.5C 174.748,333.077 171.248,324.91 169.5,316C 150.397,313.869 134.897,305.369 123,290.5C 112.866,274.388 112.032,257.888 120.5,241C 114.678,206.978 127.011,181.978 157.5,166C 161.787,164.512 166.12,163.178 170.5,162C 186.269,149.103 204.103,145.269 224,150.5C 235.833,145.278 247.666,144.945 259.5,149.5C 277.663,145.067 295.163,147.067 312,155.5C 341.635,153.482 363.969,165.149 379,190.5C 381.593,195.535 383.259,200.868 384,206.5C 397.022,219.575 401.855,235.242 398.5,253.5C 406.405,270.887 404.572,287.221 393,302.5C 389.159,305.502 386.825,309.502 386,314.5C 380.51,320.325 374.177,324.991 367,328.5C 367.977,342.25 363.144,353.417 352.5,362C 351.207,362.49 349.873,362.657 348.5,362.5 Z M 326.5,168.5 C 331.129,172.134 335.129,176.467 338.5,181.5C 349.63,184.224 357.964,190.557 363.5,200.5C 365.5,201.833 367.5,201.833 369.5,200.5C 360.493,182.211 346.16,171.544 326.5,168.5 Z M 203.5,182.5 C 200.595,183.628 197.928,185.295 195.5,187.5C 194.253,189.042 194.253,190.542 195.5,192C 200.861,188.815 206.528,185.815 212.5,183C 209.518,182.502 206.518,182.335 203.5,182.5 Z M 204.5,159.5 C 197.924,160.571 191.59,162.738 185.5,166C 177.417,171.324 172.751,178.824 171.5,188.5C 171.614,197.449 175.947,202.782 184.5,204.5C 185.91,204.132 186.91,203.299 187.5,202C 185.383,200.269 183.883,198.102 183,195.5C 181.255,188.436 182.755,182.269 187.5,177C 198.654,170.334 210.321,169.167 222.5,173.5C 225.317,171.183 227.984,168.683 230.5,166C 222.37,161.679 213.704,159.512 204.5,159.5 Z M 158.5,178.5 C 152.237,183.258 146.404,188.591 141,194.5C 133.457,205.672 130.123,218.005 131,231.5C 132.544,244.611 139.044,254.278 150.5,260.5C 151.977,257.286 152.477,253.953 152,250.5C 148.243,247.414 145.243,243.748 143,239.5C 137.374,220.044 142.707,204.377 159,192.5C 159.815,187.648 159.648,182.981 158.5,178.5 Z M 267.5,180.5 C 264.67,181.51 262.17,183.177 260,185.5C 259.312,186.332 259.479,186.998 260.5,187.5C 265.112,189.139 269.446,191.306 273.5,194C 288.738,193.578 298.738,200.578 303.5,215C 306.793,215.826 310.126,216.326 313.5,216.5C 313.117,211.183 311.617,206.183 309,201.5C 299.012,186.922 285.178,179.922 267.5,180.5 Z M 198.5,209.5 C 204.506,208.777 210.506,207.944 216.5,207C 225.59,206.626 234.59,206.459 243.5,206.5C 246.056,207.051 248.389,208.051 250.5,209.5C 253.038,206.281 255.704,203.114 258.5,200C 246.764,193.991 234.431,191.991 221.5,194C 211.466,195.901 203.799,201.068 198.5,209.5 Z M 271.5,158.5 C 257.892,160.388 246.392,166.388 237,176.5C 235.562,177.9 234.729,179.567 234.5,181.5C 238.24,181.241 241.906,181.574 245.5,182.5C 254.269,170.792 265.936,166.292 280.5,169C 307.033,174.697 322.367,190.863 326.5,217.5C 329.631,218.69 332.797,219.69 336,220.5C 336.777,211.386 335.111,202.719 331,194.5C 318.128,171.142 298.295,159.142 271.5,158.5 Z M 274.5,205.5 C 262.103,209.965 257.936,218.632 262,231.5C 265.135,237.989 269.968,239.823 276.5,237C 271.488,231.547 270.321,225.38 273,218.5C 278.136,216.607 283.303,214.94 288.5,213.5C 285.042,208.77 280.375,206.103 274.5,205.5 Z M 160.5,206.5 C 154.307,214.231 152.14,222.898 154,232.5C 156.902,239.246 159.235,238.912 161,231.5C 160.48,223.728 162.646,216.894 167.5,211C 165.5,210.333 164.167,209 163.5,207C 162.552,206.517 161.552,206.351 160.5,206.5 Z M 244.5,221.5 C 239.212,227.155 240.378,228.155 248,224.5C 247.967,222.522 246.8,221.522 244.5,221.5 Z M 220.5,218.5 C 205.199,218.67 191.199,223.17 178.5,232C 169.669,239.496 165.002,248.996 164.5,260.5C 164.029,268.055 166.696,274.222 172.5,279C 181.611,283.685 191.278,285.685 201.5,285C 207.359,280.308 213.359,275.808 219.5,271.5C 217.984,268.469 216.484,265.469 215,262.5C 213.311,267.525 210.144,271.359 205.5,274C 195.594,277.646 185.928,277.146 176.5,272.5C 171.314,259.304 174.314,248.137 185.5,239C 198.021,232.369 211.355,228.536 225.5,227.5C 227.167,224.833 228.833,222.167 230.5,219.5C 227.232,218.513 223.898,218.18 220.5,218.5 Z M 345.5,198.5 C 347.706,206.667 348.873,215 349,223.5C 357.602,227.1 362.935,233.434 365,242.5C 366.257,257.063 361.757,269.563 351.5,280C 342.496,287.334 332.829,288.334 322.5,283C 312.773,282.16 303.106,280.993 293.5,279.5C 293.167,279.833 292.833,280.167 292.5,280.5C 294.637,285.803 298.303,289.637 303.5,292C 316.423,297.008 329.09,296.342 341.5,290C 346.327,288.592 351.16,288.426 356,289.5C 375.191,271.82 377.524,252.154 363,230.5C 361.333,222.118 364.499,219.285 372.5,222C 376.312,227.124 379.479,232.624 382,238.5C 383.667,239.5 385.333,240.5 387,241.5C 386.06,222.115 375.893,212.282 356.5,212C 353.173,207.154 349.507,202.654 345.5,198.5 Z M 284.5,227.5 C 287.165,229.64 289.498,232.14 291.5,235C 306.187,236.254 320.52,239.254 334.5,244C 341.502,246.669 347.002,251.169 351,257.5C 354.615,249.577 353.115,242.744 346.5,237C 326.383,229.199 305.717,226.032 284.5,227.5 Z M 249.5,237.5 C 246.931,239.34 244.265,240.007 241.5,239.5C 245.035,242.236 247.868,245.569 250,249.5C 252.074,247.548 254.241,245.715 256.5,244C 254.242,241.534 251.909,239.367 249.5,237.5 Z M 196.5,246.5 C 193.562,248.934 190.729,251.601 188,254.5C 186.092,257.206 185.259,260.206 185.5,263.5C 189.131,264.412 192.797,264.579 196.5,264C 207.121,258.09 207.121,252.256 196.5,246.5 Z M 213.5,240.5 C 213.082,241.222 212.416,241.722 211.5,242C 217,246.167 221.833,251 226,256.5C 228.434,259.795 230.101,263.462 231,267.5C 233.738,266.518 236.572,265.852 239.5,265.5C 239.421,264.07 239.754,262.736 240.5,261.5C 237.19,254.024 232.524,247.524 226.5,242C 222.3,240.633 217.967,240.133 213.5,240.5 Z M 324.5,253.5 C 322.584,259.167 320.25,264.667 317.5,270C 323.935,271.072 330.268,272.572 336.5,274.5C 339.451,274.198 341.451,272.698 342.5,270C 339.549,261.217 333.549,255.717 324.5,253.5 Z M 227.5,325.5 C 227.695,322.044 227.695,318.378 227.5,314.5C 228.833,314.5 230.167,314.5 231.5,314.5C 234.786,315.207 238.119,315.54 241.5,315.5C 242.234,316.708 242.567,318.041 242.5,319.5C 241.833,320.5 241.167,321.5 240.5,322.5C 237.342,324.488 234.509,326.821 232,329.5C 230.672,334.541 232.505,337.207 237.5,337.5C 245.746,335.088 251.246,329.755 254,321.5C 256.052,311.745 254.719,302.412 250,293.5C 245.339,270.658 254.172,255.825 276.5,249C 288.659,246.696 300.659,247.362 312.5,251C 311.139,252.584 310.472,254.418 310.5,256.5C 298.724,255.976 287.057,256.81 275.5,259C 264.003,262.836 258.336,270.836 258.5,283C 259.386,291.657 261.886,299.824 266,307.5C 266.69,319.949 262.523,330.449 253.5,339C 237.895,348.723 221.561,350.056 204.5,343C 189.211,335.582 181.711,323.416 182,306.5C 182.78,303.488 183.947,300.655 185.5,298C 188.953,297.523 192.286,298.023 195.5,299.5C 189.392,324.227 199.059,335.727 224.5,334C 228.192,331.978 229.192,329.145 227.5,325.5 Z M 278.5,270.5 C 276.563,271.931 274.73,273.598 273,275.5C 270.175,283.111 271.175,290.444 276,297.5C 286.488,311.791 300.655,319.458 318.5,320.5C 327.989,318.555 337.322,316.221 346.5,313.5C 351.779,312.552 355.279,314.552 357,319.5C 371.868,314.502 377.368,304.502 373.5,289.5C 371.545,291.958 369.378,294.291 367,296.5C 367.386,301.094 365.386,303.761 361,304.5C 357.289,303.409 353.622,302.409 350,301.5C 339.941,304.019 329.774,306.019 319.5,307.5C 311.965,306.96 304.632,305.46 297.5,303C 284.526,297.05 278.86,287.05 280.5,273C 280.316,271.624 279.649,270.791 278.5,270.5 Z M 384.5,256.5 C 384.988,263.71 383.655,270.544 380.5,277C 383.807,279.778 385.974,283.278 387,287.5C 393.156,276.486 392.323,266.152 384.5,256.5 Z M 127.5,257.5 C 126.27,269.977 130.104,280.644 139,289.5C 140.046,287.91 141.213,286.41 142.5,285C 146.781,283.542 149.947,284.708 152,288.5C 152.539,292.271 153.039,295.771 153.5,299C 158.92,301.871 164.587,302.705 170.5,301.5C 171.407,298.943 172.407,296.443 173.5,294C 170.185,291.586 166.518,289.919 162.5,289C 159.106,284.602 156.106,279.935 153.5,275C 142.598,272.39 133.931,266.556 127.5,257.5 Z M 236.5,299.5 C 237.959,299.433 239.292,299.766 240.5,300.5C 240.751,302.17 241.418,303.67 242.5,305C 240.866,305.494 239.199,305.66 237.5,305.5C 235.5,304.833 233.5,304.167 231.5,303.5C 233.191,302.136 234.858,300.803 236.5,299.5 Z M 234.5,278.5 C 232.04,279.891 229.374,281.058 226.5,282C 215.534,288.082 208.534,297.248 205.5,309.5C 205.882,316.38 209.382,320.713 216,322.5C 216.333,317.5 216.667,312.5 217,307.5C 219.658,297.009 226.158,290.343 236.5,287.5C 237.055,283.988 236.388,280.988 234.5,278.5 Z M 276.5,323.5 C 276.369,324.239 276.536,324.906 277,325.5C 279.168,324.178 279.001,323.511 276.5,323.5 Z M 326.5,330.5 C 324.852,331.927 322.852,332.76 320.5,333C 330.425,339.805 341.425,342.638 353.5,341.5C 354.159,338.545 354.492,335.545 354.5,332.5C 345.083,332.731 335.75,332.064 326.5,330.5 Z M 291.5,326.5 C 291.176,333.375 293.842,339.208 299.5,344C 305.478,345.549 311.145,347.882 316.5,351C 319.093,353.015 321.093,355.515 322.5,358.5C 329.19,359.079 335.524,357.579 341.5,354C 335.442,352.536 329.442,350.87 323.5,349C 313.591,345.589 305.925,339.422 300.5,330.5C 297.48,329.162 294.48,327.829 291.5,326.5 Z"/></g>
<g><path style="opacity:0.451" fill="#b4b4b4" d="M 238.5,156.5 C 245.405,155.996 245.905,156.996 240,159.5C 238.961,158.756 238.461,157.756 238.5,156.5 Z"/></g>
<g><path style="opacity:0.045" fill="#f0f0f0" d="M 322.5,165.5 C 339.209,167.437 353.042,174.771 364,187.5C 367.571,191.975 370.071,196.975 371.5,202.5C 368.482,202.665 365.482,202.498 362.5,202C 357.147,191.815 348.814,185.648 337.5,183.5C 333.177,176.852 328.177,170.852 322.5,165.5 Z M 326.5,168.5 C 331.129,172.134 335.129,176.467 338.5,181.5C 349.63,184.224 357.964,190.557 363.5,200.5C 365.5,201.833 367.5,201.833 369.5,200.5C 360.493,182.211 346.16,171.544 326.5,168.5 Z"/></g>
<g><path style="opacity:0.074" fill="#eeeeee" d="M 201.5,181.5 C 206.959,181.103 212.292,181.603 217.5,183C 209.497,185.751 202.33,189.918 196,195.5C 193.293,193.428 192.293,190.761 193,187.5C 195.322,184.605 198.155,182.605 201.5,181.5 Z M 203.5,182.5 C 200.595,183.628 197.928,185.295 195.5,187.5C 194.253,189.042 194.253,190.542 195.5,192C 200.861,188.815 206.528,185.815 212.5,183C 209.518,182.502 206.518,182.335 203.5,182.5 Z"/></g>
<g><path style="opacity:0.075" fill="#eeeeee" d="M 198.5,158.5 C 210.678,157.047 222.012,159.38 232.5,165.5C 229.542,169.128 226.375,172.461 223,175.5C 209.33,169.892 196.997,171.892 186,181.5C 183.123,185.976 182.79,190.643 185,195.5C 191.648,203.895 189.481,207.062 178.5,205C 174.42,202.688 171.92,199.188 171,194.5C 169.09,184.152 171.923,175.318 179.5,168C 185.378,163.727 191.712,160.561 198.5,158.5 Z M 204.5,159.5 C 197.924,160.571 191.59,162.738 185.5,166C 177.417,171.324 172.751,178.824 171.5,188.5C 171.614,197.449 175.947,202.782 184.5,204.5C 185.91,204.132 186.91,203.299 187.5,202C 185.383,200.269 183.883,198.102 183,195.5C 181.255,188.436 182.755,182.269 187.5,177C 198.654,170.334 210.321,169.167 222.5,173.5C 225.317,171.183 227.984,168.683 230.5,166C 222.37,161.679 213.704,159.512 204.5,159.5 Z"/></g>
<g><path style="opacity:0.085" fill="#ebebeb" d="M 161.5,175.5 C 162.497,175.47 163.164,175.97 163.5,177C 162.019,182.373 161.019,187.873 160.5,193.5C 142.675,206.143 138.175,222.477 147,242.5C 149.151,245.651 151.651,248.484 154.5,251C 153.923,255.171 153.256,259.338 152.5,263.5C 140.025,258.242 132.525,248.909 130,235.5C 126.593,207.974 137.093,187.974 161.5,175.5 Z M 158.5,178.5 C 152.237,183.258 146.404,188.591 141,194.5C 133.457,205.672 130.123,218.005 131,231.5C 132.544,244.611 139.044,254.278 150.5,260.5C 151.977,257.286 152.477,253.953 152,250.5C 148.243,247.414 145.243,243.748 143,239.5C 137.374,220.044 142.707,204.377 159,192.5C 159.815,187.648 159.648,182.981 158.5,178.5 Z"/></g>
<g><path style="opacity:0.353" fill="#eaeaea" d="M 266.5,178.5 C 288.58,178.104 304.413,187.771 314,207.5C 315.108,211.086 315.608,214.753 315.5,218.5C 310.87,217.771 306.203,217.437 301.5,217.5C 299.9,208.802 295.234,202.302 287.5,198C 282.322,196.202 276.989,195.202 271.5,195C 266.479,192.827 261.812,190.16 257.5,187C 259.242,182.802 262.242,179.969 266.5,178.5 Z M 267.5,180.5 C 264.67,181.51 262.17,183.177 260,185.5C 259.312,186.332 259.479,186.998 260.5,187.5C 265.112,189.139 269.446,191.306 273.5,194C 288.738,193.578 298.738,200.578 303.5,215C 306.793,215.826 310.126,216.326 313.5,216.5C 313.117,211.183 311.617,206.183 309,201.5C 299.012,186.922 285.178,179.922 267.5,180.5 Z"/></g>
<g><path style="opacity:0.096" fill="#e6e6e6" d="M 221.5,191.5 C 235.685,190.511 249.018,193.344 261.5,200C 257.539,203.789 253.872,207.623 250.5,211.5C 247.529,210.565 244.529,209.732 241.5,209C 231.5,208.333 221.5,208.333 211.5,209C 205.104,210.478 198.771,211.812 192.5,213C 199.336,201.925 209.002,194.758 221.5,191.5 Z M 198.5,209.5 C 204.506,208.777 210.506,207.944 216.5,207C 225.59,206.626 234.59,206.459 243.5,206.5C 246.056,207.051 248.389,208.051 250.5,209.5C 253.038,206.281 255.704,203.114 258.5,200C 246.764,193.991 234.431,191.991 221.5,194C 211.466,195.901 203.799,201.068 198.5,209.5 Z"/></g>
<g><path style="opacity:0.079" fill="#e8e8e8" d="M 265.5,157.5 C 297.223,155.106 320.057,168.106 334,196.5C 337.291,204.867 338.791,213.534 338.5,222.5C 334.083,221.883 329.75,220.883 325.5,219.5C 321.763,192.847 306.763,176.68 280.5,171C 266.455,167.915 255.455,172.249 247.5,184C 241.845,183.671 236.178,183.004 230.5,182C 239.083,169.379 250.75,161.213 265.5,157.5 Z M 271.5,158.5 C 257.892,160.388 246.392,166.388 237,176.5C 235.562,177.9 234.729,179.567 234.5,181.5C 238.24,181.241 241.906,181.574 245.5,182.5C 254.269,170.792 265.936,166.292 280.5,169C 307.033,174.697 322.367,190.863 326.5,217.5C 329.631,218.69 332.797,219.69 336,220.5C 336.777,211.386 335.111,202.719 331,194.5C 318.128,171.142 298.295,159.142 271.5,158.5 Z"/></g>
<g><path style="opacity:0.067" fill="#e6e6e6" d="M 270.5,204.5 C 277.767,203.222 283.934,205.222 289,210.5C 290.559,212.217 291.392,214.217 291.5,216.5C 272.171,215.006 268.171,222.006 279.5,237.5C 275.957,238.341 272.457,239.341 269,240.5C 265.406,239.24 262.739,236.907 261,233.5C 256.032,221.004 259.199,211.337 270.5,204.5 Z M 274.5,205.5 C 262.103,209.965 257.936,218.632 262,231.5C 265.135,237.989 269.968,239.823 276.5,237C 271.488,231.547 270.321,225.38 273,218.5C 278.136,216.607 283.303,214.94 288.5,213.5C 285.042,208.77 280.375,206.103 274.5,205.5 Z"/></g>
<g><path style="opacity:0.088" fill="#e7e7e8" d="M 162.5,202.5 C 164.798,205.023 167.132,207.689 169.5,210.5C 165.173,217.176 163.34,224.509 164,232.5C 161.993,235.336 159.826,238.003 157.5,240.5C 154.665,238.172 152.831,235.172 152,231.5C 150.48,219.898 153.98,210.231 162.5,202.5 Z M 160.5,206.5 C 154.307,214.231 152.14,222.898 154,232.5C 156.902,239.246 159.235,238.912 161,231.5C 160.48,223.728 162.646,216.894 167.5,211C 165.5,210.333 164.167,209 163.5,207C 162.552,206.517 161.552,206.351 160.5,206.5 Z"/></g>
<g><path style="opacity:0.064" fill="#dedede" d="M 177.5,214.5 C 179.288,214.215 180.955,214.548 182.5,215.5C 180.249,218.295 177.582,220.628 174.5,222.5C 174.167,222.167 173.833,221.833 173.5,221.5C 174.861,219.15 176.194,216.816 177.5,214.5 Z"/></g>
<g><path style="opacity:0.072" fill="#eaebeb" d="M 242.5,218.5 C 244.806,218.993 247.139,219.326 249.5,219.5C 249.5,222.167 249.5,224.833 249.5,227.5C 245.865,228.114 242.198,228.448 238.5,228.5C 239.292,224.922 240.625,221.588 242.5,218.5 Z M 244.5,221.5 C 239.212,227.155 240.378,228.155 248,224.5C 247.967,222.522 246.8,221.522 244.5,221.5 Z"/></g>
<g><path style="opacity:0.076" fill="#e9e9e9" d="M 210.5,217.5 C 218.174,217.334 225.841,217.5 233.5,218C 231.626,221.581 229.626,225.081 227.5,228.5C 213.341,229.539 200.008,233.372 187.5,240C 176.752,247.81 173.252,257.977 177,270.5C 186.736,275.588 196.57,275.754 206.5,271C 210.187,267.79 213.021,263.956 215,259.5C 217.727,263.328 219.894,267.495 221.5,272C 215.053,276.611 209.053,281.778 203.5,287.5C 191.588,289.018 180.588,286.518 170.5,280C 160.832,270.184 158.998,259.017 165,246.5C 175.317,229.098 190.484,219.432 210.5,217.5 Z M 220.5,218.5 C 205.199,218.67 191.199,223.17 178.5,232C 169.669,239.496 165.002,248.996 164.5,260.5C 164.029,268.055 166.696,274.222 172.5,279C 181.611,283.685 191.278,285.685 201.5,285C 207.359,280.308 213.359,275.808 219.5,271.5C 217.984,268.469 216.484,265.469 215,262.5C 213.311,267.525 210.144,271.359 205.5,274C 195.594,277.646 185.928,277.146 176.5,272.5C 171.314,259.304 174.314,248.137 185.5,239C 198.021,232.369 211.355,228.536 225.5,227.5C 227.167,224.833 228.833,222.167 230.5,219.5C 227.232,218.513 223.898,218.18 220.5,218.5 Z"/></g>
<g><path style="opacity:0.088" fill="#eaeaea" d="M 342.5,194.5 C 348.72,197.233 352.886,201.899 355,208.5C 356.255,209.211 357.421,210.044 358.5,211C 376.994,211.323 386.994,220.823 388.5,239.5C 388.167,241.167 387.833,242.833 387.5,244.5C 385.343,242.588 383.009,240.921 380.5,239.5C 378.046,233.418 374.713,227.918 370.5,223C 368.559,222.257 366.726,222.424 365,223.5C 364.333,225.833 364.333,228.167 365,230.5C 379.165,251.996 376.998,271.83 358.5,290C 353.5,290.333 348.5,290.667 343.5,291C 332.715,296.176 321.381,297.842 309.5,296C 299.751,293.746 293.417,287.913 290.5,278.5C 305.568,279.054 320.401,281.054 335,284.5C 339.889,284.204 344.389,282.704 348.5,280C 357.557,271.219 362.557,260.553 363.5,248C 363.269,236.364 357.603,228.864 346.5,225.5C 347.192,214.881 345.859,204.548 342.5,194.5 Z M 345.5,198.5 C 347.706,206.667 348.873,215 349,223.5C 357.602,227.1 362.935,233.434 365,242.5C 366.257,257.063 361.757,269.563 351.5,280C 342.496,287.334 332.829,288.334 322.5,283C 312.773,282.16 303.106,280.993 293.5,279.5C 293.167,279.833 292.833,280.167 292.5,280.5C 294.637,285.803 298.303,289.637 303.5,292C 316.423,297.008 329.09,296.342 341.5,290C 346.327,288.592 351.16,288.426 356,289.5C 375.191,271.82 377.524,252.154 363,230.5C 361.333,222.118 364.499,219.285 372.5,222C 376.312,227.124 379.479,232.624 382,238.5C 383.667,239.5 385.333,240.5 387,241.5C 386.06,222.115 375.893,212.282 356.5,212C 353.173,207.154 349.507,202.654 345.5,198.5 Z"/></g>
<g><path style="opacity:0.088" fill="#e8e8e8" d="M 283.5,224.5 C 304.361,224.354 324.695,227.521 344.5,234C 353.633,238.365 356.8,245.531 354,255.5C 353.252,257.332 352.252,258.999 351,260.5C 345.854,252.352 338.687,246.852 329.5,244C 317.024,240.646 304.357,238.313 291.5,237C 288.296,234.131 285.463,230.965 283,227.5C 282.53,226.423 282.697,225.423 283.5,224.5 Z M 284.5,227.5 C 287.165,229.64 289.498,232.14 291.5,235C 306.187,236.254 320.52,239.254 334.5,244C 341.502,246.669 347.002,251.169 351,257.5C 354.615,249.577 353.115,242.744 346.5,237C 326.383,229.199 305.717,226.032 284.5,227.5 Z"/></g>
<g><path style="opacity:0.114" fill="#ececec" d="M 251.5,235.5 C 254.161,238.171 256.494,241.171 258.5,244.5C 255.209,247.289 252.042,250.289 249,253.5C 245.938,247.77 242.104,242.603 237.5,238C 242.336,237.32 247.003,236.486 251.5,235.5 Z M 249.5,237.5 C 246.931,239.34 244.265,240.007 241.5,239.5C 245.035,242.236 247.868,245.569 250,249.5C 252.074,247.548 254.241,245.715 256.5,244C 254.242,241.534 251.909,239.367 249.5,237.5 Z"/></g>
<g><path style="opacity:0.046" fill="#e8e8e8" d="M 196.5,244.5 C 209.105,250.047 209.771,256.88 198.5,265C 184.167,269.355 180.334,265.189 187,252.5C 189.775,249.22 192.942,246.554 196.5,244.5 Z M 196.5,246.5 C 193.562,248.934 190.729,251.601 188,254.5C 186.092,257.206 185.259,260.206 185.5,263.5C 189.131,264.412 192.797,264.579 196.5,264C 207.121,258.09 207.121,252.256 196.5,246.5 Z"/></g>
<g><path style="opacity:0.093" fill="#ebebeb" d="M 214.5,238.5 C 218.637,238.146 222.637,238.646 226.5,240C 233.763,245.588 239.096,252.588 242.5,261C 241.888,263.058 240.888,264.891 239.5,266.5C 236.548,267.654 233.548,268.654 230.5,269.5C 225.691,258.174 218.358,248.674 208.5,241C 210.611,240.155 212.611,239.322 214.5,238.5 Z M 213.5,240.5 C 213.082,241.222 212.416,241.722 211.5,242C 217,246.167 221.833,251 226,256.5C 228.434,259.795 230.101,263.462 231,267.5C 233.738,266.518 236.572,265.852 239.5,265.5C 239.421,264.07 239.754,262.736 240.5,261.5C 237.19,254.024 232.524,247.524 226.5,242C 222.3,240.633 217.967,240.133 213.5,240.5 Z"/></g>
<g><path style="opacity:0.114" fill="#e7e7e7" d="M 323.5,251.5 C 332.13,253.31 338.63,257.977 343,265.5C 344.971,271.582 342.638,275.249 336,276.5C 329.376,274.146 322.543,272.812 315.5,272.5C 317.346,265.149 320.013,258.149 323.5,251.5 Z M 324.5,253.5 C 322.584,259.167 320.25,264.667 317.5,270C 323.935,271.072 330.268,272.572 336.5,274.5C 339.451,274.198 341.451,272.698 342.5,270C 339.549,261.217 333.549,255.717 324.5,253.5 Z"/></g>
<g><path style="opacity:0.049" fill="#e8e8e8" d="M 227.5,325.5 C 229.192,329.145 228.192,331.978 224.5,334C 199.059,335.727 189.392,324.227 195.5,299.5C 192.286,298.023 188.953,297.523 185.5,298C 183.947,300.655 182.78,303.488 182,306.5C 181.711,323.416 189.211,335.582 204.5,343C 221.561,350.056 237.895,348.723 253.5,339C 262.523,330.449 266.69,319.949 266,307.5C 261.886,299.824 259.386,291.657 258.5,283C 258.336,270.836 264.003,262.836 275.5,259C 287.057,256.81 298.724,255.976 310.5,256.5C 310.472,254.418 311.139,252.584 312.5,251C 300.659,247.362 288.659,246.696 276.5,249C 254.172,255.825 245.339,270.658 250,293.5C 254.719,302.412 256.052,311.745 254,321.5C 251.246,329.755 245.746,335.088 237.5,337.5C 232.505,337.207 230.672,334.541 232,329.5C 234.509,326.821 237.342,324.488 240.5,322.5C 239.027,325.354 236.86,327.688 234,329.5C 233.573,336.783 236.407,338.283 242.5,334C 254.689,322.995 256.856,310.162 249,295.5C 242.444,270.447 251.611,254.28 276.5,247C 289.544,244.356 302.211,245.523 314.5,250.5C 313.457,253.501 311.957,256.168 310,258.5C 298.006,256.816 286.173,257.649 274.5,261C 262.45,266.767 257.95,276.267 261,289.5C 262.229,294.529 264.229,299.196 267,303.5C 269.342,329.816 257.509,344.983 231.5,349C 207.334,351.415 190.501,341.582 181,319.5C 178.626,311.494 179.459,303.827 183.5,296.5C 188.066,296.213 192.733,296.213 197.5,296.5C 195.096,304.754 194.929,313.087 197,321.5C 204.968,333.151 214.968,335.484 227,328.5C 227.483,327.552 227.649,326.552 227.5,325.5 Z M 227.5,325.5 C 227.695,322.044 227.695,318.378 227.5,314.5C 228.833,314.5 230.167,314.5 231.5,314.5C 234.786,315.207 238.119,315.54 241.5,315.5C 242.234,316.708 242.567,318.041 242.5,319.5C 241.833,320.5 241.167,321.5 240.5,322.5C 237.342,324.488 234.509,326.821 232,329.5C 230.672,334.541 232.505,337.207 237.5,337.5C 245.746,335.088 251.246,329.755 254,321.5C 256.052,311.745 254.719,302.412 250,293.5C 245.339,270.658 254.172,255.825 276.5,249C 288.659,246.696 300.659,247.362 312.5,251C 311.139,252.584 310.472,254.418 310.5,256.5C 298.724,255.976 287.057,256.81 275.5,259C 264.003,262.836 258.336,270.836 258.5,283C 259.386,291.657 261.886,299.824 266,307.5C 266.69,319.949 262.523,330.449 253.5,339C 237.895,348.723 221.561,350.056 204.5,343C 189.211,335.582 181.711,323.416 182,306.5C 182.78,303.488 183.947,300.655 185.5,298C 188.953,297.523 192.286,298.023 195.5,299.5C 189.392,324.227 199.059,335.727 224.5,334C 228.192,331.978 229.192,329.145 227.5,325.5 Z M 236.5,299.5 C 237.959,299.433 239.292,299.766 240.5,300.5C 240.751,302.17 241.418,303.67 242.5,305C 240.866,305.494 239.199,305.66 237.5,305.5C 235.5,304.833 233.5,304.167 231.5,303.5C 233.191,302.136 234.858,300.803 236.5,299.5 Z"/></g>
<g><path style="opacity:0.176" fill="#e6e6e6" d="M 294.5,266.5 C 298.884,266.174 303.217,266.508 307.5,267.5C 306.372,269.556 304.538,270.556 302,270.5C 298.995,270.519 296.162,269.852 293.5,268.5C 293.863,267.817 294.196,267.15 294.5,266.5 Z"/></g>
<g><path style="opacity:0.131" fill="#eeeeee" d="M 281.5,267.5 C 282.376,267.369 283.043,267.702 283.5,268.5C 279.029,284.232 284.362,295.398 299.5,302C 305.629,304.244 311.962,305.41 318.5,305.5C 329.28,304.13 339.946,302.13 350.5,299.5C 353.321,299.168 355.654,300.001 357.5,302C 363.704,303.467 366.538,300.967 366,294.5C 368.901,291.688 371.568,288.688 374,285.5C 380.899,303.035 375.399,314.702 357.5,320.5C 354.351,316.926 350.351,314.926 345.5,314.5C 317.961,327.736 294.461,322.736 275,299.5C 270.491,292.798 268.824,285.465 270,277.5C 272.194,272.171 276.027,268.838 281.5,267.5 Z M 278.5,270.5 C 276.563,271.931 274.73,273.598 273,275.5C 270.175,283.111 271.175,290.444 276,297.5C 286.488,311.791 300.655,319.458 318.5,320.5C 327.989,318.555 337.322,316.221 346.5,313.5C 351.779,312.552 355.279,314.552 357,319.5C 371.868,314.502 377.368,304.502 373.5,289.5C 371.545,291.958 369.378,294.291 367,296.5C 367.386,301.094 365.386,303.761 361,304.5C 357.289,303.409 353.622,302.409 350,301.5C 339.941,304.019 329.774,306.019 319.5,307.5C 311.965,306.96 304.632,305.46 297.5,303C 284.526,297.05 278.86,287.05 280.5,273C 280.316,271.624 279.649,270.791 278.5,270.5 Z"/></g>
<g><path style="opacity:0.064" fill="#eaeaea" d="M 383.5,252.5 C 391.83,260 394.663,269.333 392,280.5C 390.573,285.122 388.573,289.455 386,293.5C 385.654,290.424 384.988,287.424 384,284.5C 382.09,281.844 380.59,279.011 379.5,276C 381.966,268.373 383.299,260.539 383.5,252.5 Z M 384.5,256.5 C 384.988,263.71 383.655,270.544 380.5,277C 383.807,279.778 385.974,283.278 387,287.5C 393.156,276.486 392.323,266.152 384.5,256.5 Z"/></g>
<g><path style="opacity:0.028" fill="#e9e9e9" d="M 126.5,253.5 C 130.63,258.131 134.963,262.631 139.5,267C 144.024,270.231 149.024,272.398 154.5,273.5C 159.224,282.055 166.057,288.389 175,292.5C 173.691,296.297 172.858,300.297 172.5,304.5C 165.053,305.055 158.053,303.555 151.5,300C 150.703,296.255 150.203,292.421 150,288.5C 147.847,286.556 145.347,286.056 142.5,287C 141.887,289.147 141.221,291.314 140.5,293.5C 128.081,282.911 123.414,269.578 126.5,253.5 Z M 127.5,257.5 C 126.27,269.977 130.104,280.644 139,289.5C 140.046,287.91 141.213,286.41 142.5,285C 146.781,283.542 149.947,284.708 152,288.5C 152.539,292.271 153.039,295.771 153.5,299C 158.92,301.871 164.587,302.705 170.5,301.5C 171.407,298.943 172.407,296.443 173.5,294C 170.185,291.586 166.518,289.919 162.5,289C 159.106,284.602 156.106,279.935 153.5,275C 142.598,272.39 133.931,266.556 127.5,257.5 Z"/></g>
<g><path style="opacity:0.033" fill="#e6e6e6" d="M 240.5,300.5 C 239.292,299.766 237.959,299.433 236.5,299.5C 238.423,296.782 239.756,297.116 240.5,300.5 Z"/></g>
<g><path style="opacity:0.035" fill="#b1b1b1" d="M 231.5,303.5 C 233.5,304.167 235.5,304.833 237.5,305.5C 235.076,305.808 232.743,305.474 230.5,304.5C 230.624,303.893 230.957,303.56 231.5,303.5 Z"/></g>
<g><path style="opacity:0.094" fill="#eaebeb" d="M 218.5,309.5 C 218.138,314.421 217.138,319.087 215.5,323.5C 207.493,322.695 203.493,318.195 203.5,310C 207.736,291.192 219.403,280.026 238.5,276.5C 238.5,280.5 238.5,284.5 238.5,288.5C 231.075,291.082 225.242,295.749 221,302.5C 219.589,304.65 218.755,306.984 218.5,309.5 Z M 234.5,278.5 C 232.04,279.891 229.374,281.058 226.5,282C 215.534,288.082 208.534,297.248 205.5,309.5C 205.882,316.38 209.382,320.713 216,322.5C 216.333,317.5 216.667,312.5 217,307.5C 219.658,297.009 226.158,290.343 236.5,287.5C 237.055,283.988 236.388,280.988 234.5,278.5 Z"/></g>
<g><path style="opacity:0.086" fill="#d3d3d4" d="M 231.5,314.5 C 230.167,314.5 228.833,314.5 227.5,314.5C 227.695,318.378 227.695,322.044 227.5,325.5C 226.517,321.702 226.183,317.702 226.5,313.5C 228.415,313.216 230.081,313.549 231.5,314.5 Z"/></g>
<g><path style="opacity:0.605" fill="#555555" d="M 218.5,309.5 C 218.5,314.5 218.5,319.5 218.5,324.5C 217.209,324.737 216.209,324.404 215.5,323.5C 217.138,319.087 218.138,314.421 218.5,309.5 Z"/></g>
<g><path style="opacity:0.041" fill="#e5e5e5" d="M 241.5,315.5 C 245.013,315.869 245.347,317.202 242.5,319.5C 242.567,318.041 242.234,316.708 241.5,315.5 Z"/></g>
<g><path style="opacity:0.06" fill="#e1e1e1" d="M 276.5,314.5 C 277.75,314.577 278.583,315.244 279,316.5C 279.498,319.817 279.665,323.15 279.5,326.5C 277.833,326.5 276.167,326.5 274.5,326.5C 275.486,322.557 276.152,318.557 276.5,314.5 Z M 276.5,323.5 C 276.369,324.239 276.536,324.906 277,325.5C 279.168,324.178 279.001,323.511 276.5,323.5 Z"/></g>
<g><path style="opacity:0.584" fill="#606161" d="M 323.5,329.5 C 320.833,330.167 318.167,330.833 315.5,331.5C 314.957,331.44 314.624,331.107 314.5,330.5C 317.428,329.516 320.428,329.183 323.5,329.5 Z"/></g>
<g><path style="opacity:0.187" fill="#e7e8e8" d="M 315.5,331.5 C 318.167,330.833 320.833,330.167 323.5,329.5C 325.848,329.33 328.182,328.997 330.5,328.5C 338.952,331.678 347.618,332.345 356.5,330.5C 356.313,334.913 355.646,339.246 354.5,343.5C 339.747,344.69 326.747,340.69 315.5,331.5 Z M 326.5,330.5 C 324.852,331.927 322.852,332.76 320.5,333C 330.425,339.805 341.425,342.638 353.5,341.5C 354.159,338.545 354.492,335.545 354.5,332.5C 345.083,332.731 335.75,332.064 326.5,330.5 Z"/></g>
<g><path style="opacity:0.055" fill="#e9e9e9" d="M 288.5,322.5 C 293.029,324.595 297.696,326.428 302.5,328C 306.295,337.753 313.295,344.086 323.5,347C 330.616,349.817 337.95,351.817 345.5,353C 338.287,359.043 329.954,361.377 320.5,360C 315.451,351.806 308.118,347.139 298.5,346C 291.769,339.646 288.435,331.813 288.5,322.5 Z M 291.5,326.5 C 291.176,333.375 293.842,339.208 299.5,344C 305.478,345.549 311.145,347.882 316.5,351C 319.093,353.015 321.093,355.515 322.5,358.5C 329.19,359.079 335.524,357.579 341.5,354C 335.442,352.536 329.442,350.87 323.5,349C 313.591,345.589 305.925,339.422 300.5,330.5C 297.48,329.162 294.48,327.829 291.5,326.5 Z"/></g>
<g><path style="opacity:0.235" fill="#ececec" d="M 270.5,335.5 C 274.226,335.177 277.893,335.511 281.5,336.5C 285.286,348.457 293.286,355.623 305.5,358C 308.215,358.875 309.548,360.708 309.5,363.5C 287.81,369.655 274.144,361.822 268.5,340C 268.519,338.167 269.185,336.667 270.5,335.5 Z M 271.5,337.5 C 270.527,339.068 270.36,340.735 271,342.5C 276.873,360.687 289.04,367.187 307.5,362C 301.678,358.705 295.678,355.705 289.5,353C 285.61,348.721 282.61,343.888 280.5,338.5C 277.572,337.516 274.572,337.183 271.5,337.5 Z"/></g>
<g><path style="opacity:0.008" fill="#dadada" d="M 347.5,363.5 C 346.486,364.674 345.153,365.34 343.5,365.5C 344.287,363.896 345.62,363.229 347.5,363.5 Z"/></g>
</svg>
